<svg width="580" height="260" viewBox="0 0 580 260" fill="none" xmlns="http://www.w3.org/2000/svg" role="img" aria-label="daquii horizontal logo">
  <defs>
    <linearGradient id="dqGradient" x1="30" y1="25" x2="215" y2="235" gradientUnits="userSpaceOnUse">
      <stop offset="0" stop-color="#FF2D6D"/>
      <stop offset="0.48" stop-color="#FFB62B"/>
      <stop offset="1" stop-color="#00C2BB"/>
    </linearGradient>
  </defs>
  <path d="M127 22C162 19 188 38 198 67C207 94 234 104 240 134C246 169 221 195 192 207C167 218 163 250 137 268C107 290 68 279 55 247C44 222 11 216 -1 188C-15 154 0 123 28 108C52 94 47 64 69 42C84 29 104 24 127 22Z"
        transform="translate(18 -8) scale(.92)"
        stroke="url(#dqGradient)" stroke-width="14" stroke-linecap="round" stroke-linejoin="round"/>
  <g fill="#00C2BB" transform="translate(18 -8) scale(.92)">
    <path d="M122 101h12v74h-12z"/>
    <path d="M128 101c-18-23-44-25-66-11 30 0 48 11 59 30l7-19z"/>
    <path d="M128 101c18-23 44-25 66-11-30 0-48 11-59 30l-7-19z"/>
    <path d="M128 101c-2-28-19-45-46-52 18 19 27 39 27 62l19-10z"/>
    <path d="M128 101c2-28 19-45 46-52-18 19-27 39-27 62l-19-10z"/>
    <path d="M61 186c42-11 91-11 133 0v12c-42-9-91-9-133 0v-12z"/>
  </g>
  <text x="270" y="163" font-family="Sora, Montserrat, Inter, Arial, sans-serif" font-size="120" font-weight="800" fill="#0B1D3A" letter-spacing="-8">daqu</text>
  <rect x="542" y="76" width="27" height="88" rx="13.5" fill="#0B1D3A"/>
  <rect x="581" y="76" width="27" height="88" rx="13.5" fill="#0B1D3A"/>
  <circle cx="555.5" cy="48" r="15" fill="#00C2BB"/>
  <circle cx="594.5" cy="48" r="15" fill="#FF2D6D"/>
</svg>
