<svg width="512" height="512" viewBox="0 0 512 512" fill="none" xmlns="http://www.w3.org/2000/svg">
  <defs>
    <linearGradient id="daquiiGradient" x1="90" y1="75" x2="420" y2="425" gradientUnits="userSpaceOnUse">
      <stop offset="0" stop-color="#FF2D6D"/>
      <stop offset="0.45" stop-color="#FFB62B"/>
      <stop offset="1" stop-color="#00C2BB"/>
    </linearGradient>
  </defs>
  <path d="M256 54C318 54 359 88 376 133C390 171 427 185 443 224C462 270 436 315 397 337C360 358 350 399 311 425C262 458 202 443 174 399C150 362 108 358 83 326C48 282 57 224 98 196C132 173 126 128 161 94C185 70 218 54 256 54Z" stroke="url(#daquiiGradient)" stroke-width="28" stroke-linecap="round" stroke-linejoin="round"/>
  <g fill="#00C2BB">
    <path d="M249 205h14v126h-14z"/>
    <path d="M256 203c-32-36-74-33-101-11 45-2 76 16 95 45l6-34z"/>
    <path d="M256 203c32-36 74-33 101-11-45-2-76 16-95 45l-6-34z"/>
    <path d="M256 203c-6-43-36-68-72-73 26 29 42 60 43 96l29-23z"/>
    <path d="M256 203c6-43 36-68 72-73-26 29-42 60-43 96l-29-23z"/>
    <path d="M160 342c62-14 130-14 192 0v16c-62-12-130-12-192 0v-16z"/>
    <path d="M187 377c44-8 94-8 138 0v13c-44-7-94-7-138 0v-13z"/>
  </g>
</svg>
