<svg width="512" height="512" viewBox="0 0 512 512" fill="none" xmlns="http://www.w3.org/2000/svg" role="img" aria-label="daquii island palm logo mark">
  <defs>
    <linearGradient id="dqGradient" x1="94" y1="82" x2="400" y2="430" gradientUnits="userSpaceOnUse">
      <stop offset="0" stop-color="#FF2D6D"/>
      <stop offset="0.48" stop-color="#FFB62B"/>
      <stop offset="1" stop-color="#00C2BB"/>
    </linearGradient>
  </defs>
  <path d="M260 55C311 51 349 78 363 121C376 160 417 176 425 221C434 272 397 310 354 328C317 344 311 392 273 420C228 453 171 437 151 389C135 351 86 342 68 301C47 253 70 207 111 184C146 164 139 119 172 88C194 68 225 58 260 55Z"
        stroke="url(#dqGradient)" stroke-width="30" stroke-linecap="round" stroke-linejoin="round"/>
  <g fill="#00C2BB">
    <path d="M246 208h20v122h-20z"/>
    <path d="M256 208c-30-38-72-41-110-18 52 0 83 19 101 52l9-34z"/>
    <path d="M256 208c30-38 72-41 110-18-52 0-83 19-101 52l-9-34z"/>
    <path d="M256 207c-4-46-31-75-75-86 29 31 43 65 43 103l32-17z"/>
    <path d="M256 207c4-46 31-75 75-86-29 31-43 65-43 103l-32-17z"/>
    <path d="M145 349c69-18 151-18 220 0v20c-69-14-151-14-220 0v-20z"/>
    <path d="M188 389c43-8 93-8 136 0v14c-43-7-93-7-136 0v-14z"/>
  </g>
</svg>